<svg xmlns="http://www.w3.org/2000/svg" viewBox="0 0 83.61 55.19">
	<defs>
		<style>
			.cls-1{fill:#fff;}.cls-2{fill:#20476d;}.cls-3{fill:#dadce0;}.cls-4{fill:#2967a8;}.cls-5{fill:#18639b;}.cls-6{fill:#b3cae0;}.cls-7{fill:#18639d;}.cls-8{fill:#78c8ff;}.cls-9{fill:#ffd4e0;}.cls-10{fill:#1972a3;}.cls-11{opacity:0.9;}.cls-12{fill:#2685d3;}.cls-13{fill:#adbac2;}.cls-14{fill:#3c4f6b;}.cls-15{fill:#2967a7;}.cls-16{fill:#7799c8;}.cls-17{fill:#095b93;}
		</style>
	</defs>
	<g id="图层_2" data-name="图层 2">
		<g id="_1" data-name="1">
			<path class="cls-1" d="M21.89,36.87a12.51,12.51,0,0,1-3.57-.08,11.92,11.92,0,0,1-4.05-1.53,4.41,4.41,0,0,1-1.43-1.2l-.48-.74a.56.56,0,1,0-1,.47l.22.44c.1.19.09.41-.36.08L10.83,34a1.61,1.61,0,0,0-2.39.2c-1.51,1.67.71,3.36.71,3.36A20.14,20.14,0,0,0,20,42.05a9.9,9.9,0,0,0,1.83.14" />
			<path class="cls-2" d="M21.81,42.31A9.47,9.47,0,0,1,20,42.17a20.51,20.51,0,0,1-10.9-4.55,3.36,3.36,0,0,1-1.26-2,1.93,1.93,0,0,1,.55-1.49,2,2,0,0,1,1.24-.69,1.73,1.73,0,0,1,1.32.47l.38.34.2.12s0,0,0-.05l-.21-.44a.82.82,0,0,1,0-.63.58.58,0,0,1,.3-.33.7.7,0,0,1,1,.38l.47.72a4.3,4.3,0,0,0,1.38,1.17,12.34,12.34,0,0,0,4,1.51,12.72,12.72,0,0,0,3.53.08l0,.23a12.35,12.35,0,0,1-3.6-.08,12.1,12.1,0,0,1-4.1-1.54,4.34,4.34,0,0,1-1.45-1.23l-.49-.74c-.24-.46-.59-.3-.63-.28a.38.38,0,0,0-.19.19.57.57,0,0,0,0,.44l.21.44c.09.16.09.3,0,.37s-.36,0-.54-.15l-.39-.33a1.49,1.49,0,0,0-1.13-.43,1.82,1.82,0,0,0-1.08.61A1.7,1.7,0,0,0,8,35.57a3.25,3.25,0,0,0,1.18,1.87A20.3,20.3,0,0,0,20,41.94a11.23,11.23,0,0,0,1.81.13Z" />
			<path class="cls-3" d="M9.74,37a20.35,20.35,0,0,0,12.11,3.26l.24,1.84a25.63,25.63,0,0,1-6.64-1.18,21.33,21.33,0,0,1-6.12-3.26c-2.25-2-.86-3.27-.86-3.27S7.71,35.55,9.74,37Z" />
			<rect class="cls-2" x="10.11" y="37.06" width="4.89" height="0.17" transform="translate(-26.05 30.27) rotate(-61.23)" />
			<polygon class="cls-4" points="12.34 39.57 14.47 35.52 15.28 35.93 13.13 39.96 12.34 39.57" />
			<path class="cls-1" d="M20.36,8.89s4.75-7.18,16.23-7.16c0,0,9.63-.17,15.49,7.11V15.9s-16.93,2.93-17.2,2.73-15.42-5.09-15.34-5.3S20.36,8.89,20.36,8.89Z" />
			<path class="cls-3" d="M29,37.2A31.13,31.13,0,0,0,36,38a33.89,33.89,0,0,0,7.27-.73,8.16,8.16,0,0,1,1.44,2.31A29.37,29.37,0,0,0,36,38.4c-5.17,0-7.8.48-8.48,1.16l.57-1.27Z" />
			<path class="cls-5" d="M33.37,37.73s3.61.26,5.75.14l-.62-1.63c-.18-.64-.7-1.3-1.28-1.3H35.14c-.59,0-1.11.66-1.29,1.3l-.48,1.49" />
			<path class="cls-6" d="M15.16,28.15,19,27.93l-1-8.55-3.73.5C12,20.17,12.77,28.23,15.16,28.15Z" />
			<path d="M15.13,28.32c-1.38,0-2.19-2.27-2.36-4.39s.23-4.06,1.47-4.22l3.9-.51,1,8.88-4,.24Zm2.72-8.75L14.28,20c-1,.13-1.32,2.09-1.18,3.86.16,2,.93,4.09,2,4.09h0l3.64-.22Z" />
			<path class="cls-1" d="M13.56,23.43h0a.2.2,0,0,1-.2-.21V23c0-.11.12-.22.21-.2a.22.22,0,0,1,.2.21v.2A.21.21,0,0,1,13.56,23.43Z" />
			<path class="cls-1" d="M13.6,22.43h0a.2.2,0,0,1-.18-.22,5.34,5.34,0,0,1,.31-1.37.2.2,0,0,1,.26-.12.21.21,0,0,1,.12.27,4.61,4.61,0,0,0-.28,1.26A.21.21,0,0,1,13.6,22.43Z" />
			<path class="cls-6" d="M57.15,28.15l-3.82-.22,1-8.55,3.73.5C60.33,20.17,59.54,28.23,57.15,28.15Z" />
			<path d="M57.19,28.29h0l-4-.23,1-8.83,3.87.51c1.22.15,1.6,2.21,1.44,4.18S58.54,28.29,57.19,28.29Zm0-.28c1.13,0,1.91-2.09,2.08-4.11.14-1.78-.17-3.75-1.2-3.89l-3.6-.47-.95,8.26Z" />
			<path class="cls-1" d="M58.75,23.43a.2.2,0,0,1-.2-.2V23a.22.22,0,0,1,.2-.21h0a.21.21,0,0,1,.2.2v.2a.2.2,0,0,1-.2.21Z" />
			<path class="cls-1" d="M58.71,22.43a.2.2,0,0,1-.2-.19A5,5,0,0,0,58.22,21a.21.21,0,0,1,.12-.27.2.2,0,0,1,.26.12,5.44,5.44,0,0,1,.31,1.37.2.2,0,0,1-.18.22Z" />
			<path d="M36.25,38c-7.28,0-13-2-16.49-5.84-2.9-3.17-4.2-7.5-3.76-12.52.93-10.6,9.26-18,20.25-18S55.56,9,56.49,19.62c.44,5-.86,9.35-3.76,12.52C49.23,36,43.53,38,36.25,38Zm0-36.14c-10.87,0-19.11,7.32-20,17.8-.44,5,.85,9.23,3.71,12.35,3.46,3.78,9.1,5.77,16.32,5.77s12.86-2,16.32-5.77c2.86-3.12,4.14-7.39,3.7-12.35h0C55.35,9.16,47.12,1.84,36.25,1.84Z" />
			<path class="cls-3" d="M56.38,19.43a21.38,21.38,0,0,0-1.68-6.66,19.06,19.06,0,0,1,1,5.29c.53,10.56-5.77,18.16-19.43,18.16S16.17,28.89,16.81,18.06a19.82,19.82,0,0,1,1-5.29,21.31,21.31,0,0,0-1.68,6.66c-.94,10.86,6.08,18.43,20.14,18.43S57.32,30.29,56.38,19.43Z" />
			<path class="cls-1" d="M20.36,8.89s-7.79,9.74-2.23,20.78c0,0,3.8,8.18,18.12,8.31,0,0,18,1,20.06-14.21A20.6,20.6,0,0,0,52.08,8.84s-1.1,1.44-2.42,2.87c-1.13,1.22-2.9,3.69-2.9,3.69L26.4,15.08Z" />
			<path class="cls-1" d="M36.25,12.33A4.36,4.36,0,1,1,40.54,8,4.33,4.33,0,0,1,36.25,12.33Z" />
			<path d="M36.25,3.69A4.28,4.28,0,1,1,32,8a4.25,4.25,0,0,1,4.21-4.28m0-.16A4.44,4.44,0,1,0,40.62,8a4.41,4.41,0,0,0-4.37-4.44Z" />
			<path class="cls-7" d="M36.25,10.85A2.88,2.88,0,1,1,39.08,8,2.86,2.86,0,0,1,36.25,10.85Z" />
			<path class="cls-8" d="M36.25,5.43A2.54,2.54,0,1,1,33.76,8a2.52,2.52,0,0,1,2.49-2.54m0-.68A3.22,3.22,0,1,0,39.41,8a3.19,3.19,0,0,0-3.16-3.22Z" />
			<path class="cls-1" d="M34.88,6.85a.21.21,0,0,1-.13,0,.19.19,0,0,1,0-.28,2.13,2.13,0,0,1,.61-.46.2.2,0,0,1,.26.1.19.19,0,0,1-.09.26,1.59,1.59,0,0,0-.49.37A.2.2,0,0,1,34.88,6.85Z" />
			<path class="cls-1" d="M34.48,7.51h-.07a.21.21,0,0,1-.12-.26l.06-.14a.2.2,0,0,1,.26-.1.19.19,0,0,1,.1.26s0,.08,0,.12A.21.21,0,0,1,34.48,7.51Z" />
			<path class="cls-3" d="M56.39,19.54a21.45,21.45,0,0,0-1.68-6.66,14.4,14.4,0,0,1,1,5.29c-.43,10.62-5.77,17.49-19.43,17.49s-19-7.4-19.43-17.49a14.61,14.61,0,0,1,1-5.29,21.31,21.31,0,0,0-1.68,6.66C15.17,30.4,22.19,38,36.25,38S57.33,30.4,56.39,19.54Z" />
			<path class="cls-7" d="M47.52,16.11l-.27.35A1.47,1.47,0,0,1,46.1,17h-5a1.45,1.45,0,0,1-1.17-.61l-.84-1.18a.84.84,0,0,0-.7-.36h-4a.84.84,0,0,0-.7.36l-.87,1.19a1.42,1.42,0,0,1-1.16.6H26.22a1.47,1.47,0,0,1-1.08-.48l-.29-.32a10.17,10.17,0,0,0-3.65,7.56c0,6.39,4.11,10.3,15,10.69h0c11.15-.34,15-4.3,15-10.69A10.16,10.16,0,0,0,47.52,16.11Z" />
			<ellipse class="cls-9" cx="43.64" cy="28.16" rx="2.13" ry="0.89" />
			<ellipse class="cls-9" cx="28.43" cy="28.16" rx="2.16" ry="0.89" />
			<path class="cls-10" d="M21.16,24.54a10.07,10.07,0,0,1,3.72-8.36c.33-.28.83.26,1.22.31.69.08,1.31-.11,2.16,0,5.07.5,4.08-2,6.15-2.25a24.08,24.08,0,0,1,3.25.09c1.78,0,2.13,1.59,3.16,2.08,1.71.81,3.25-1,4.83.22l.32.27s-19.83,1.1-24.77,8Z" />
			<g class="cls-11">
				<ellipse class="cls-1" cx="25.57" cy="18.41" rx="1.03" ry="0.55" transform="translate(-5.61 13.88) rotate(-27.48)" />
			</g>
			<g class="cls-11">
				<ellipse class="cls-1" cx="24" cy="19.62" rx="0.3" ry="0.23" transform="translate(-6.46 13.84) rotate(-28.52)" />
			</g>
			<path class="cls-12" d="M53,10.37a31.05,31.05,0,0,1-4.36,6,2.28,2.28,0,0,1-1.63.73H41.22a2.11,2.11,0,0,1-1.7-.84l-.91-1.2a.39.39,0,0,0-.32-.16H34.41a.41.41,0,0,0-.32.15l-.94,1.22a2.11,2.11,0,0,1-1.69.83H25.53A2.18,2.18,0,0,1,24,16.45a35.06,35.06,0,0,1-4.42-6.16l.72-1a32.88,32.88,0,0,0,4.49,6.37,1.06,1.06,0,0,0,.78.33h5.93a1,1,0,0,0,.82-.4l.94-1.22a1.51,1.51,0,0,1,1.19-.58h3.88a1.51,1.51,0,0,1,1.2.59l.9,1.21a1,1,0,0,0,.83.4H47a1.15,1.15,0,0,0,.84-.4,31.38,31.38,0,0,0,4.44-6.21Z" />
			<path d="M36.25,38c-7.3,0-13-2-16.53-5.86C16.81,29,15.5,24.65,15.94,19.62,16.88,9,25.23,1.56,36.25,1.56S55.62,9,56.55,19.62h0c.44,5-.87,9.38-3.78,12.56C49.26,36,43.54,38,36.25,38Zm0-36.15c-10.85,0-19.06,7.3-20,17.76-.43,4.94.85,9.19,3.7,12.3,3.45,3.77,9.08,5.76,16.28,5.76s12.83-2,16.28-5.76c2.84-3.11,4.12-7.36,3.69-12.3h0C55.3,9.19,47.09,1.89,36.25,1.89Z" />
			<ellipse class="cls-1" cx="35.9" cy="30.17" rx="0.71" ry="1.14" />
			<ellipse class="cls-1" cx="41.08" cy="24.15" rx="2.65" ry="3.36" />
			<ellipse class="cls-1" cx="31.19" cy="24.15" rx="2.65" ry="3.36" />
			<circle class="cls-1" cx="36.34" cy="43.42" r="2.1" />
			<polygon class="cls-13" points="53.64 51.81 19.82 51.81 16.39 33.65 57.08 33.65 53.64 51.81" />
			<path class="cls-14" d="M53.93,52.16H19.54L16,33.31H57.5Zm-33.82-.69H53.36L56.67,34H16.8Z" />
			<rect class="cls-13" x="19.82" y="51.81" width="33.73" height="3.04" />
			<path class="cls-14" d="M53.9,55.19H19.48V51.47H53.9Zm-33.73-.68h33V52.16h-33Z" />
			<circle class="cls-1" cx="36.77" cy="42.44" r="2.47" />
			<path d="M4.3,27.73a4.06,4.06,0,0,0-1.67.88,6.65,6.65,0,0,0-1.2,1.5,3,3,0,0,1,.33-1,3.1,3.1,0,0,1,.63-.81A2.45,2.45,0,0,1,4.3,27.73Z" />
			<path d="M2.87,26a3.93,3.93,0,0,0-1.67.87A6.88,6.88,0,0,0,0,28.33a3,3,0,0,1,.32-1A3.14,3.14,0,0,1,1,26.56,2.42,2.42,0,0,1,2.87,26Z" />
		</g>
		<g id="_2" data-name="2">
			<path class="cls-15" d="M72.07,1.91C64.58-.16,57.52,1.71,56.3,6.09c-.63,2.26.42,4.75,2.62,6.91l-1,2.53c-.17.41.44.88,1,.78l3.6-.65a23.23,23.23,0,0,0,5.13,2.09c7.49,2.07,14.56.2,15.78-4.18S79.56,4,72.07,1.91Z" />
			<path class="cls-1" d="M71.83,1.09C64.34-1,57.28.89,56.06,5.27c-.63,2.26.42,4.75,2.62,6.91l-1,2.53c-.17.41.44.88,1,.78l3.6-.65a23.23,23.23,0,0,0,5.13,2.09C74.9,19,82,17.13,83.19,12.75S79.32,3.15,71.83,1.09Z" />
			<path class="cls-16" d="M73.38,18a22.48,22.48,0,0,1-6-.85,23.16,23.16,0,0,1-5.12-2.07l-3.5.63a1.26,1.26,0,0,1-1.17-.41.7.7,0,0,1-.13-.71l1-2.37c-2.29-2.3-3.2-4.79-2.57-7C57.07.7,64.29-1.26,71.9.84c4.86,1.35,9,4.14,10.77,7.29a6.14,6.14,0,0,1,.76,4.69C82.51,16.09,78.45,18,73.38,18ZM62.32,14.57l.08,0a22.64,22.64,0,0,0,5.08,2.07c7.35,2,14.28.23,15.46-4a5.61,5.61,0,0,0-.71-4.32c-1.71-3-5.73-5.74-10.47-7h0c-7.34-2-14.28-.23-15.46,4-.59,2.11.32,4.47,2.56,6.67l.12.12L57.89,14.8c0,.07,0,.15.06.2a.77.77,0,0,0,.69.24Z" />
			<circle class="cls-15" cx="61.32" cy="6.66" r="1.22" />
			<circle class="cls-16" cx="61.17" cy="6.53" r="1.22" />
			<circle class="cls-15" cx="66.83" cy="8.33" r="1.22" />
			<circle class="cls-16" cx="66.68" cy="8.2" r="1.22" />
			<circle class="cls-15" cx="72.3" cy="10.02" r="1.22" />
			<circle class="cls-16" cx="72.15" cy="9.89" r="1.22" />
			<circle class="cls-15" cx="77.85" cy="11.85" r="1.22" />
			<circle class="cls-16" cx="77.7" cy="11.72" r="1.22" />
		</g>
		<g id="_3" data-name="3">
			<ellipse class="cls-17" cx="41.08" cy="24.76" rx="2.07" ry="2.17" />
			<ellipse class="cls-1" cx="40.1" cy="23.55" rx="0.71" ry="0.75" />
			<ellipse class="cls-1" cx="41.51" cy="25.58" rx="0.32" ry="0.34" />
			<ellipse class="cls-17" cx="31.19" cy="24.76" rx="2.07" ry="2.17" />
			<ellipse class="cls-1" cx="30.2" cy="23.55" rx="0.71" ry="0.75" />
			<ellipse class="cls-1" cx="31.61" cy="25.58" rx="0.32" ry="0.34" />
		</g>
	</g>
</svg>
