<?xml version="1.0" encoding="utf-8"?>
<!-- Generator: Adobe Illustrator 17.0.0, SVG Export Plug-In . SVG Version: 6.00 Build 0)  -->
<!DOCTYPE svg PUBLIC "-//W3C//DTD SVG 1.1//EN" "http://www.w3.org/Graphics/SVG/1.1/DTD/svg11.dtd">
<svg version="1.1" id="图层_1" xmlns="http://www.w3.org/2000/svg" xmlns:xlink="http://www.w3.org/1999/xlink" x="0px" y="0px"
	 width="120px" height="32px" viewBox="0 0 120 32" enable-background="new 0 0 120 32" xml:space="preserve">
<g>
	<g>
		<g>
			<g>
				<path fill="#C30E18" d="M51.654,13.364l3.549-0.128c-0.109,0.33-0.095,0.582,0.042,0.754c0.222,0.281,0.682,0.422,1.383,0.422
					c0.523,0,0.962-0.073,1.323-0.215c0.362-0.144,0.595-0.309,0.697-0.498c0.1-0.18,0.053-0.338-0.136-0.48
					c-0.191-0.143-0.741-0.275-1.651-0.402c-1.486-0.211-2.475-0.49-2.966-0.838c-0.494-0.349-0.593-0.795-0.295-1.335
					c0.196-0.355,0.558-0.692,1.085-1.007c0.526-0.316,1.193-0.565,2-0.745c0.806-0.181,1.827-0.272,3.057-0.272
					c1.513,0,2.574,0.166,3.188,0.493c0.609,0.329,0.792,0.852,0.547,1.567l-3.507,0.12c0.078-0.312,0.012-0.539-0.204-0.679
					c-0.214-0.142-0.579-0.213-1.096-0.213c-0.425,0-0.774,0.052-1.048,0.157c-0.273,0.105-0.45,0.233-0.534,0.385
					c-0.063,0.109-0.025,0.208,0.102,0.296c0.121,0.091,0.485,0.176,1.086,0.254c1.487,0.202,2.519,0.406,3.097,0.611
					c0.574,0.207,0.937,0.461,1.085,0.766c0.145,0.304,0.114,0.648-0.092,1.023c-0.245,0.443-0.682,0.852-1.308,1.226
					c-0.627,0.375-1.368,0.658-2.228,0.85c-0.86,0.195-1.861,0.29-3.007,0.29c-2.012,0-3.28-0.227-3.803-0.679
					C51.491,14.637,51.37,14.061,51.654,13.364z"/>
			</g>
		</g>
		<g>
			<path fill="#C30E18" d="M115.722,7.728C113.476,7.8,111.236,7.87,109,7.933l-3.525,8.306c1.212,0.031,2.423,0.066,3.628,0.101
				l1.261-2.975h2c1.474,0,2.676-0.254,3.616-0.766c0.931-0.512,1.593-1.221,1.979-2.129c0.37-0.884,0.334-1.564-0.123-2.043
				C117.447,8.02,116.739,7.787,115.722,7.728z M114.368,10.549c-0.121,0.291-0.367,0.529-0.733,0.715
				c-0.363,0.185-0.898,0.281-1.601,0.281h-0.895l0.83-1.941l1.061-0.066c0.682,0,1.108,0.099,1.27,0.294
				C114.465,10.029,114.486,10.268,114.368,10.549z"/>
		</g>
		<g>
			<path fill="#C30E18" d="M105.189,8.037c-3.058,0.079-6.092,0.15-9.111,0.213l-3.268,7.705c1.215,0.023,2.426,0.046,3.632,0.071
				l2.72-6.416l1.652-0.084c0.667,0,1.09,0.078,1.266,0.233c0.173,0.154,0.2,0.379,0.079,0.668
				c-0.086,0.198-0.236,0.371-0.453,0.521c-0.218,0.152-0.454,0.247-0.714,0.284c-0.511,0.081-0.851,0.123-1.018,0.123H99.72
				l-0.836,1.949c0.13,0.119,0.238,0.332,0.325,0.651l0.614,2.146c1.398,0.032,2.787,0.065,4.174,0.1l-0.537-2.105
				c-0.032-0.13-0.121-0.316-0.277-0.558c-0.148-0.241-0.278-0.398-0.379-0.471c-0.155-0.112-0.425-0.221-0.815-0.332
				c0.585-0.094,1.064-0.213,1.436-0.357c0.586-0.224,1.095-0.518,1.525-0.88c0.436-0.363,0.759-0.793,0.968-1.291
				c0.245-0.573,0.269-1.059,0.071-1.458C105.833,8.429,105.561,8.195,105.189,8.037z"/>
		</g>
		<g>
			<path fill="#C30E18" d="M86.01,8.426l-6.736,7.332c1.205,0.014,2.407,0.026,3.606,0.041l4.745-5.759l-0.134,5.178l-0.013,0.647
				c1.251,0.02,2.504,0.04,3.748,0.062l-0.529-7.576C89.143,8.377,87.578,8.402,86.01,8.426z"/>
		</g>
		<g>
			<path fill="#C30E18" d="M48.715,8.579l-1.742,4.106l-1.947-4.133c-1.386-0.013-2.769-0.025-4.148-0.04l-3.088,7.28
				c1.149-0.014,2.298-0.027,3.453-0.04l1.691-3.987l1.869,3.954c1.442-0.012,2.889-0.022,4.343-0.03l3.005-7.091
				C51.004,8.593,49.859,8.585,48.715,8.579z"/>
		</g>
		<g>
			<path fill="#C30E18" d="M30.987,8.378l-7.016,7.641c1.238-0.025,2.481-0.049,3.728-0.071l4.863-5.907l-0.13,5.178l-0.018,0.649
				c1.243-0.018,2.49-0.037,3.743-0.055L35.642,8.45C34.082,8.428,32.534,8.405,30.987,8.378z"/>
		</g>
		<g>
			<path fill="#C30E18" d="M24.827,8.268c-3.174-0.063-6.32-0.136-9.431-0.215l-3.503,8.258c1.228-0.035,2.464-0.067,3.705-0.099
				l2.845-6.686h1.604c0.667,0,1.088,0.078,1.265,0.233c0.177,0.154,0.204,0.379,0.08,0.668c-0.083,0.198-0.234,0.371-0.452,0.521
				c-0.216,0.152-0.455,0.247-0.712,0.284c-0.514,0.081-0.854,0.123-1.019,0.123h-0.255l-0.833,1.949
				c0.129,0.119,0.236,0.332,0.324,0.651l0.622,2.172c1.368-0.033,2.742-0.063,4.123-0.091l-0.495-1.94
				c-0.029-0.13-0.121-0.316-0.275-0.558c-0.151-0.241-0.281-0.398-0.385-0.471c-0.15-0.112-0.421-0.221-0.809-0.332
				c0.582-0.094,1.062-0.213,1.436-0.357c0.583-0.224,1.094-0.518,1.525-0.88c0.433-0.363,0.757-0.793,0.97-1.291
				c0.241-0.573,0.266-1.059,0.07-1.458C25.131,8.56,24.996,8.4,24.827,8.268z"/>
		</g>
		<g>
			<path fill="#C30E18" d="M3.774,7.709H2.731l-0.942,2.22h3.728l-2.829,6.666c1.228-0.041,2.464-0.081,3.705-0.12l2.778-6.546
				h3.727l0.815-1.922C10.359,7.918,7.045,7.819,3.774,7.709z"/>
		</g>
		<g>
			<path fill="#C30E18" d="M81.083,9.294l0.58-0.811c-1.146,0.013-2.295,0.027-3.449,0.038l-0.517,0.773l0,0l-2.319,3.444
				l0.245-4.193l0,0l0.317-5.518l-7.687,9.717l0.251-1.417l0,0l0.481-2.736c-1.14,0.007-2.284,0.011-3.428,0.014l-0.446,3.468
				l-1.29,10.045l8.716-11.079l-0.269,4.657c1.41,0.008,2.816,0.021,4.219,0.033l4.042-5.658L81.083,9.294L81.083,9.294z"/>
		</g>
		<g>
			<path fill="#C30E18" d="M60,17.778c22.275,0,42.937,1.032,59.96,2.793c-16.195-2.487-37.115-3.986-59.96-3.986
				c-22.845,0-43.765,1.499-59.961,3.986C17.062,18.81,37.724,17.778,60,17.778z"/>
		</g>
	</g>
	<g>
		<path fill="#717071" d="M37.882,27.205l1.187-0.242c0.097,0.742,0.5,1.113,1.211,1.113c0.532-0.016,0.814-0.233,0.847-0.653
			c0.016-0.29-0.169-0.517-0.557-0.678c-0.404-0.146-0.759-0.242-1.065-0.291c-0.985-0.209-1.461-0.727-1.429-1.55
			c0.097-0.887,0.75-1.363,1.961-1.428c1.275-0.032,2.018,0.468,2.228,1.501l-1.187,0.218c-0.081-0.517-0.412-0.774-0.993-0.774
			c-0.468,0.016-0.719,0.186-0.75,0.508c-0.033,0.291,0.282,0.509,0.944,0.654c0.516,0.113,0.936,0.258,1.259,0.436
			c0.565,0.323,0.855,0.774,0.872,1.355c-0.048,1.033-0.75,1.566-2.106,1.599C38.947,28.988,38.14,28.399,37.882,27.205z"/>
		<path fill="#717071" d="M50.652,26.236c-0.097,1.728-0.977,2.64-2.639,2.736c-1.679-0.097-2.566-1.009-2.664-2.736
			c0.081-1.775,0.969-2.695,2.664-2.76C49.659,23.573,50.539,24.493,50.652,26.236z M49.32,26.236
			c-0.033-1.113-0.477-1.694-1.332-1.743c-0.872,0.049-1.332,0.63-1.38,1.743c0.032,1.098,0.484,1.671,1.356,1.72
			C48.852,27.939,49.304,27.366,49.32,26.236z"/>
		<path fill="#717071" d="M55.867,27.011h-0.896v1.864h-1.21v-5.327h2.228c1.292,0.032,1.961,0.59,2.01,1.671
			C58.013,26.429,57.303,27.027,55.867,27.011z M55.77,24.468h-0.799v1.622h0.799c0.629-0.016,0.952-0.29,0.968-0.823
			C56.722,24.751,56.4,24.485,55.77,24.468z"/>
		<path fill="#717071" d="M65.852,28.875h-1.211V26.72h-2.324v2.155h-1.21v-5.327h1.21v2.131h2.324v-2.131h1.211V28.875z"/>
		<path fill="#717071" d="M74.264,26.236c-0.098,1.728-0.978,2.64-2.639,2.736c-1.679-0.097-2.566-1.009-2.663-2.736
			c0.08-1.775,0.968-2.695,2.663-2.76C73.271,23.573,74.151,24.493,74.264,26.236z M72.932,26.236
			c-0.032-1.113-0.476-1.694-1.332-1.743c-0.871,0.049-1.331,0.63-1.38,1.743c0.032,1.098,0.484,1.671,1.355,1.72
			C72.464,27.939,72.915,27.366,72.932,26.236z"/>
		<path fill="#717071" d="M82.118,28.875h-1.234l-2.106-3.342c-0.098-0.161-0.194-0.322-0.291-0.484
			c0.016,0.227,0.024,0.525,0.024,0.896v2.93h-1.139v-5.327h1.308l2.034,3.269c0.016,0.032,0.04,0.073,0.072,0.121
			c0.113,0.178,0.186,0.314,0.219,0.412v-0.024c-0.017-0.178-0.024-0.444-0.024-0.799v-2.979h1.138V28.875z"/>
	</g>
</g>
</svg>
