<?xml version="1.0" encoding="UTF-8"?>
<svg width="1010px" height="243px" viewBox="0 0 1010 243" version="1.1" xmlns="http://www.w3.org/2000/svg" xmlns:xlink="http://www.w3.org/1999/xlink">
    <!-- Generator: Sketch 53.2 (72643) - https://sketchapp.com -->
    <title>discover</title>
    <desc>Created with Sketch.</desc>
    <g id="Page-1" stroke="none" stroke-width="1" fill="none" fill-rule="evenodd">
        <path d="M569.223852,121.500611 C707.968284,123.091425 859.825432,132.937476 1010,157.9117 C1010,157.9117 809.286777,138.032985 560.942799,132.733998 L532.9546,170.699 L537.696786,132.283953 C361.979546,129.232647 165.271349,133.841456 0,157.9117 C0,157.9117 234.279517,120.340569 539.054984,121.281528 L547.8696,49.877 L575.9676,49.877 L571.1076,86.391 L634.5996,2.55795385e-13 L629.7446,86.391 L654.0206,49.877 L682.1296,49.877 L639.8036,114.141 L604.7646,114.141 L606.1076,71.469 L569.22397,121.500613 Z M328.3357,235.5133 C338.4467,235.5163 343.8887,229.5663 343.8927,217.8553 C343.8967,206.0793 338.4587,200.5103 328.3477,200.5073 L324.0597,200.5053 L324.0487,235.5113 L328.3357,235.5133 Z M316.6387,194.4883 L328.8607,194.4923 C343.3237,194.4963 351.5767,202.4983 351.5717,217.8583 C351.5667,233.1533 343.3087,241.5973 329.2307,241.5923 L316.6227,241.5883 L316.6387,194.4883 Z M371.613,194.5064 L379.037,194.5084 L379.021,241.6094 L371.597,241.6074 L371.613,194.5064 Z M398.2869,235.5367 L402.6409,230.4177 C406.0309,233.8097 410.6379,235.9877 415.1819,235.9887 C420.8769,235.9907 424.0779,233.3047 424.0789,229.3367 C424.0799,225.0487 420.8809,223.7037 416.5299,221.7827 L410.0039,218.9657 C405.4609,217.0437 400.4059,213.4577 400.4089,206.6097 C400.4109,199.1867 406.9399,193.6217 415.8989,193.6257 C421.4029,193.6267 426.5859,195.9327 430.1689,199.5807 L426.2629,204.3147 C423.3199,201.6897 420.0569,200.0897 415.8969,200.0887 C411.0979,200.0867 407.9609,202.3897 407.9599,206.1657 C407.9589,210.1967 411.7339,211.7337 415.5729,213.2707 L422.0359,216.0257 C427.6019,218.3937 431.6329,221.8517 431.6309,228.7637 C431.6279,236.3147 425.3539,242.4567 415.0519,242.4527 C408.5879,242.4507 402.5729,239.8897 398.2869,235.5367 Z M448.2112,218.2096 C448.2162,202.8506 457.5632,193.6396 469.4652,193.6436 C475.3532,193.6456 479.9602,196.4616 482.8382,199.5986 L478.8052,204.3326 C476.3752,201.8366 473.4312,200.1066 469.5912,200.1056 C461.4642,200.1036 455.8312,206.8856 455.8272,217.9556 C455.8232,229.1546 461.0682,236.0046 469.3872,236.0076 C473.6752,236.0086 477.0032,234.0896 479.8202,231.0196 L483.7872,235.6916 C480.0092,240.0426 475.2092,242.4736 469.1292,242.4716 C457.2912,242.4676 448.2062,233.6326 448.2112,218.2096 Z M530.9607,217.9166 C530.9647,206.8456 525.8467,200.1246 518.0397,200.1216 C510.2317,200.1186 505.1747,206.8376 505.1707,217.9086 C505.1677,228.9796 510.2207,236.0206 518.0277,236.0226 C525.8347,236.0256 530.9567,228.9876 530.9607,217.9166 Z M497.5557,217.9056 C497.5607,202.7386 505.9467,193.6546 518.0417,193.6586 C530.1367,193.6626 538.5807,202.7526 538.5757,217.9196 C538.5707,233.0866 530.1207,242.4906 518.0257,242.4866 C505.9307,242.4826 497.5507,233.0726 497.5557,217.9056 Z M551.5798,194.565 L559.4508,194.568 L566.4178,218.952 C568.0168,224.329 569.0388,228.936 570.7008,234.377 L571.0208,234.377 C572.6228,228.937 573.7758,224.331 575.3128,218.955 L582.2968,194.576 L589.8488,194.578 L575.1138,241.673 L566.3468,241.67 L551.5798,194.565 Z M606.1702,194.5836 L634.0072,194.5926 L634.0052,200.8006 L613.5912,200.7936 L613.5872,213.9116 L630.8662,213.9176 L630.8642,220.1896 L613.5852,220.1846 L613.5802,235.4146 L634.6982,235.4216 L634.6962,241.6926 L606.1552,241.6846 L606.1702,194.5836 Z M662.2253,216.7447 L669.3293,216.7467 C676.1763,216.7487 679.8883,213.9337 679.8903,208.2387 C679.8923,202.5437 676.1813,200.5577 669.3333,200.5557 L662.2303,200.5537 L662.2253,216.7447 Z M680.5193,241.7087 L669.8383,222.6977 L662.2233,222.6957 L662.2173,241.7027 L654.7933,241.6997 L654.8093,194.5987 L670.2313,194.6037 C679.9583,194.6077 687.2533,198.0657 687.2493,208.2407 C687.2473,215.5367 683.3423,219.8877 677.3903,221.7407 L688.9033,241.7117 L680.5193,241.7087 Z M22.6355,41.562 L114.5455,43.373 L106.2075,61.334 L75.1955,61.334 L52.0895,120.111 L22.9445,120.111 L43.9025,62.096 L13.3605,61.334 L22.6355,41.562 Z M127.7138,44.0636 L207.1738,46.4906 C207.1738,46.4906 225.2108,71.4696 177.6818,86.0386 L177.3408,88.1226 C177.3408,88.1226 183.0938,84.8026 187.7518,98.5256 C191.9918,111.0636 192.9458,115.8776 192.9458,115.8776 L159.6338,115.8776 L150.9658,91.2436 L157.2088,75.2836 C157.2088,75.2836 176.6478,75.9796 178.7118,65.5736 C180.8118,55.1626 171.3308,58.2916 169.1278,57.9316 C166.9258,57.5906 153.7458,58.2916 153.7458,58.2916 L130.1428,117.6086 L97.8868,117.6086 L127.7138,44.0636 Z M200.5806,116.2215 L258.5206,48.5665 L296.6886,48.5665 L301.8936,114.1415 L270.3136,114.1415 L271.7016,63.1415 L231.4586,116.2215 L200.5806,116.2215 Z M341.0804,49.9538 L376.8254,48.5668 L392.7824,86.7408 L406.6594,50.3028 L435.1084,50.3028 L410.4784,112.7518 L374.0554,112.7518 L358.7864,79.0988 L344.9104,112.7518 L314.7204,114.1408 L341.0804,49.9538 Z M431.3024,91.9345 L460.0864,91.9345 C460.0864,91.9345 458.7004,104.4165 476.0544,102.8625 C493.3924,101.3025 490.9714,93.3245 490.2784,91.9345 C489.5794,90.5475 482.6364,87.4285 463.9134,85.3375 C445.1724,83.2625 445.1724,71.8135 447.2594,68.6925 C449.3324,65.5745 456.9774,48.5665 507.9684,49.9535 C507.9684,49.9535 533.2914,48.2225 531.2184,67.3055 L501.0284,69.3885 C501.0284,69.3885 503.8024,61.0585 495.4734,61.0585 C487.1594,61.0585 476.7484,62.1035 476.7484,66.2605 C476.7484,70.4245 486.4574,71.4695 499.3014,73.5525 C512.1234,75.6285 523.9304,79.0985 523.2374,87.4285 C522.5434,95.7485 511.4304,112.3995 467.0284,114.1415 C422.6294,115.8775 430.5914,93.6755 431.3024,91.9345 Z M662.7044,114.1411 L719.9454,48.5671 L758.1064,48.5671 L763.6514,114.1411 L732.7734,114.1411 L732.7734,62.4451 L693.2354,114.2381 L662.7044,114.1411 Z M803.9025,46.1392 L879.5295,44.4002 C879.5295,44.4002 886.4645,46.1392 887.5095,56.5502 C888.5545,66.9532 875.3565,82.9102 854.5415,87.0742 C854.5415,87.0742 864.9555,87.7812 869.4615,117.9532 L835.4655,117.9532 C835.4655,117.9532 830.6055,96.7942 827.8375,91.6002 L833.7275,74.5902 C833.7275,74.5902 853.1525,74.9422 855.5875,64.5292 C858.0225,54.1172 828.5305,58.2912 828.5305,58.2912 L806.6645,116.2212 L776.1365,116.2212 L803.9025,46.1392 Z M929.2437,75.9621 C933.5117,75.9621 959.1357,78.9581 958.2767,65.7171 C957.4277,52.4751 936.1117,58.4471 936.1117,58.4471 L929.2437,75.9621 Z M973.8927,41.9751 C976.6597,41.9751 992.2807,46.4911 989.1617,61.0581 C986.0357,75.6281 971.1987,89.5171 950.5817,92.0111 C937.7157,93.5691 923.5927,92.6301 923.5927,92.6301 L912.4897,119.3481 L882.6427,117.9531 L911.7817,44.4001 C911.7817,44.4001 971.1067,41.9751 973.8927,41.9751 Z" id="discover" fill="#FFFFFF"></path>
    </g>
</svg>